<mxfile host="app.diagrams.net" modified="2024-02-15T17:05:36.774Z" agent="Mozilla/5.0 (Windows NT 10.0; Win64; x64) AppleWebKit/537.36 (KHTML, like Gecko) Chrome/121.0.0.0 Safari/537.36" etag="CUxOnM1-jG_PFnTuFKYW" version="23.1.4" type="device">
  <diagram name="PÃ¡gina-1" id="JT6fGuFwI95Fs5OXGfkk">
    <mxGraphModel dx="880" dy="468" grid="1" gridSize="10" guides="1" tooltips="1" connect="1" arrows="1" fold="1" page="1" pageScale="1" pageWidth="1169" pageHeight="827" math="0" shadow="0">
      <root>
        <mxCell id="0" />
        <mxCell id="1" parent="0" />
        <mxCell id="FPZFbBysWziWErQP3HPj-1" value="USERS" style="rounded=0;whiteSpace=wrap;html=1;" vertex="1" parent="1">
          <mxGeometry x="240" y="320" width="120" height="60" as="geometry" />
        </mxCell>
        <mxCell id="FPZFbBysWziWErQP3HPj-2" value="TASKS" style="rounded=0;whiteSpace=wrap;html=1;" vertex="1" parent="1">
          <mxGeometry x="790" y="320" width="120" height="60" as="geometry" />
        </mxCell>
        <mxCell id="FPZFbBysWziWErQP3HPj-3" value="CREATES" style="html=1;whiteSpace=wrap;aspect=fixed;shape=isoRectangle;" vertex="1" parent="1">
          <mxGeometry x="510" y="305" width="150" height="90" as="geometry" />
        </mxCell>
        <mxCell id="FPZFbBysWziWErQP3HPj-5" value="" style="endArrow=none;html=1;rounded=0;exitX=1;exitY=0.5;exitDx=0;exitDy=0;" edge="1" parent="1" source="FPZFbBysWziWErQP3HPj-1" target="FPZFbBysWziWErQP3HPj-3">
          <mxGeometry width="50" height="50" relative="1" as="geometry">
            <mxPoint x="460" y="400" as="sourcePoint" />
            <mxPoint x="510" y="350" as="targetPoint" />
          </mxGeometry>
        </mxCell>
        <mxCell id="FPZFbBysWziWErQP3HPj-6" value="" style="endArrow=none;html=1;rounded=0;entryX=1;entryY=0.5;entryDx=0;entryDy=0;entryPerimeter=0;" edge="1" parent="1" source="FPZFbBysWziWErQP3HPj-2" target="FPZFbBysWziWErQP3HPj-3">
          <mxGeometry width="50" height="50" relative="1" as="geometry">
            <mxPoint x="460" y="400" as="sourcePoint" />
            <mxPoint x="510" y="350" as="targetPoint" />
          </mxGeometry>
        </mxCell>
        <mxCell id="FPZFbBysWziWErQP3HPj-7" value="" style="ellipse;whiteSpace=wrap;html=1;aspect=fixed;fillColor=#0066CC;" vertex="1" parent="1">
          <mxGeometry x="200" y="320" width="10" height="10" as="geometry" />
        </mxCell>
        <mxCell id="FPZFbBysWziWErQP3HPj-8" value="" style="ellipse;whiteSpace=wrap;html=1;aspect=fixed;" vertex="1" parent="1">
          <mxGeometry x="200" y="340" width="10" height="10" as="geometry" />
        </mxCell>
        <mxCell id="FPZFbBysWziWErQP3HPj-9" value="" style="ellipse;whiteSpace=wrap;html=1;aspect=fixed;" vertex="1" parent="1">
          <mxGeometry x="200" y="360" width="10" height="10" as="geometry" />
        </mxCell>
        <mxCell id="FPZFbBysWziWErQP3HPj-10" value="" style="ellipse;whiteSpace=wrap;html=1;aspect=fixed;" vertex="1" parent="1">
          <mxGeometry x="200" y="380" width="10" height="10" as="geometry" />
        </mxCell>
        <mxCell id="FPZFbBysWziWErQP3HPj-12" value="" style="endArrow=none;html=1;rounded=0;exitX=1;exitY=0.5;exitDx=0;exitDy=0;entryX=0;entryY=0.75;entryDx=0;entryDy=0;" edge="1" parent="1" source="FPZFbBysWziWErQP3HPj-10" target="FPZFbBysWziWErQP3HPj-1">
          <mxGeometry width="50" height="50" relative="1" as="geometry">
            <mxPoint x="290" y="400" as="sourcePoint" />
            <mxPoint x="340" y="350" as="targetPoint" />
            <Array as="points">
              <mxPoint x="230" y="385" />
            </Array>
          </mxGeometry>
        </mxCell>
        <mxCell id="FPZFbBysWziWErQP3HPj-13" value="" style="endArrow=none;html=1;rounded=0;exitX=1;exitY=0.5;exitDx=0;exitDy=0;" edge="1" parent="1" source="FPZFbBysWziWErQP3HPj-9" target="FPZFbBysWziWErQP3HPj-1">
          <mxGeometry width="50" height="50" relative="1" as="geometry">
            <mxPoint x="205" y="365" as="sourcePoint" />
            <mxPoint x="340" y="350" as="targetPoint" />
            <Array as="points">
              <mxPoint x="230" y="365" />
            </Array>
          </mxGeometry>
        </mxCell>
        <mxCell id="FPZFbBysWziWErQP3HPj-14" value="" style="endArrow=none;html=1;rounded=0;exitX=1;exitY=0.5;exitDx=0;exitDy=0;" edge="1" parent="1" source="FPZFbBysWziWErQP3HPj-8">
          <mxGeometry width="50" height="50" relative="1" as="geometry">
            <mxPoint x="250" y="400" as="sourcePoint" />
            <mxPoint x="240" y="345" as="targetPoint" />
          </mxGeometry>
        </mxCell>
        <mxCell id="FPZFbBysWziWErQP3HPj-15" value="" style="endArrow=none;html=1;rounded=0;exitX=1;exitY=0.5;exitDx=0;exitDy=0;entryX=0;entryY=0.25;entryDx=0;entryDy=0;" edge="1" parent="1" source="FPZFbBysWziWErQP3HPj-7" target="FPZFbBysWziWErQP3HPj-1">
          <mxGeometry width="50" height="50" relative="1" as="geometry">
            <mxPoint x="250" y="400" as="sourcePoint" />
            <mxPoint x="300" y="350" as="targetPoint" />
            <Array as="points">
              <mxPoint x="230" y="325" />
            </Array>
          </mxGeometry>
        </mxCell>
        <mxCell id="FPZFbBysWziWErQP3HPj-16" value="id" style="text;html=1;align=center;verticalAlign=middle;resizable=0;points=[];autosize=1;strokeColor=none;fillColor=none;" vertex="1" parent="1">
          <mxGeometry x="170" y="310" width="30" height="30" as="geometry" />
        </mxCell>
        <mxCell id="FPZFbBysWziWErQP3HPj-17" value="email" style="text;html=1;align=center;verticalAlign=middle;resizable=0;points=[];autosize=1;strokeColor=none;fillColor=none;" vertex="1" parent="1">
          <mxGeometry x="150" y="330" width="50" height="30" as="geometry" />
        </mxCell>
        <mxCell id="FPZFbBysWziWErQP3HPj-18" value="pass" style="text;html=1;align=center;verticalAlign=middle;resizable=0;points=[];autosize=1;strokeColor=none;fillColor=none;" vertex="1" parent="1">
          <mxGeometry x="150" y="350" width="50" height="30" as="geometry" />
        </mxCell>
        <mxCell id="FPZFbBysWziWErQP3HPj-19" value="name" style="text;html=1;align=center;verticalAlign=middle;resizable=0;points=[];autosize=1;strokeColor=none;fillColor=none;" vertex="1" parent="1">
          <mxGeometry x="150" y="370" width="50" height="30" as="geometry" />
        </mxCell>
        <mxCell id="FPZFbBysWziWErQP3HPj-25" value="" style="ellipse;whiteSpace=wrap;html=1;aspect=fixed;fillColor=#0066CC;" vertex="1" parent="1">
          <mxGeometry x="950" y="310" width="10" height="10" as="geometry" />
        </mxCell>
        <mxCell id="FPZFbBysWziWErQP3HPj-26" value="" style="ellipse;whiteSpace=wrap;html=1;aspect=fixed;" vertex="1" parent="1">
          <mxGeometry x="950" y="330" width="10" height="10" as="geometry" />
        </mxCell>
        <mxCell id="FPZFbBysWziWErQP3HPj-27" value="" style="ellipse;whiteSpace=wrap;html=1;aspect=fixed;" vertex="1" parent="1">
          <mxGeometry x="950" y="350" width="10" height="10" as="geometry" />
        </mxCell>
        <mxCell id="FPZFbBysWziWErQP3HPj-28" value="" style="ellipse;whiteSpace=wrap;html=1;aspect=fixed;" vertex="1" parent="1">
          <mxGeometry x="950" y="370" width="10" height="10" as="geometry" />
        </mxCell>
        <mxCell id="FPZFbBysWziWErQP3HPj-29" value="" style="ellipse;whiteSpace=wrap;html=1;aspect=fixed;" vertex="1" parent="1">
          <mxGeometry x="950" y="390" width="10" height="10" as="geometry" />
        </mxCell>
        <mxCell id="FPZFbBysWziWErQP3HPj-32" value="id" style="text;html=1;align=left;verticalAlign=middle;resizable=0;points=[];autosize=1;strokeColor=none;fillColor=none;" vertex="1" parent="1">
          <mxGeometry x="970" y="300" width="30" height="30" as="geometry" />
        </mxCell>
        <mxCell id="FPZFbBysWziWErQP3HPj-33" value="title" style="text;html=1;align=left;verticalAlign=middle;resizable=0;points=[];autosize=1;strokeColor=none;fillColor=none;" vertex="1" parent="1">
          <mxGeometry x="970" y="320" width="40" height="30" as="geometry" />
        </mxCell>
        <mxCell id="FPZFbBysWziWErQP3HPj-34" value="description" style="text;html=1;align=left;verticalAlign=middle;resizable=0;points=[];autosize=1;strokeColor=none;fillColor=none;" vertex="1" parent="1">
          <mxGeometry x="970" y="340" width="80" height="30" as="geometry" />
        </mxCell>
        <mxCell id="FPZFbBysWziWErQP3HPj-35" value="status" style="text;html=1;align=left;verticalAlign=middle;resizable=0;points=[];autosize=1;strokeColor=none;fillColor=none;" vertex="1" parent="1">
          <mxGeometry x="970" y="360" width="60" height="30" as="geometry" />
        </mxCell>
        <mxCell id="FPZFbBysWziWErQP3HPj-36" value="due_date" style="text;html=1;align=left;verticalAlign=middle;resizable=0;points=[];autosize=1;strokeColor=none;fillColor=none;" vertex="1" parent="1">
          <mxGeometry x="970" y="380" width="70" height="30" as="geometry" />
        </mxCell>
        <mxCell id="FPZFbBysWziWErQP3HPj-37" value="" style="endArrow=none;html=1;rounded=0;entryX=0;entryY=0.5;entryDx=0;entryDy=0;" edge="1" parent="1" source="FPZFbBysWziWErQP3HPj-2" target="FPZFbBysWziWErQP3HPj-25">
          <mxGeometry width="50" height="50" relative="1" as="geometry">
            <mxPoint x="840" y="400" as="sourcePoint" />
            <mxPoint x="890" y="350" as="targetPoint" />
            <Array as="points">
              <mxPoint x="920" y="315" />
            </Array>
          </mxGeometry>
        </mxCell>
        <mxCell id="FPZFbBysWziWErQP3HPj-38" value="" style="endArrow=none;html=1;rounded=0;entryX=0;entryY=0.5;entryDx=0;entryDy=0;exitX=1;exitY=0.25;exitDx=0;exitDy=0;" edge="1" parent="1" source="FPZFbBysWziWErQP3HPj-2" target="FPZFbBysWziWErQP3HPj-26">
          <mxGeometry width="50" height="50" relative="1" as="geometry">
            <mxPoint x="840" y="400" as="sourcePoint" />
            <mxPoint x="890" y="350" as="targetPoint" />
          </mxGeometry>
        </mxCell>
        <mxCell id="FPZFbBysWziWErQP3HPj-39" value="" style="endArrow=none;html=1;rounded=0;entryX=0;entryY=0.5;entryDx=0;entryDy=0;exitX=0.997;exitY=0.583;exitDx=0;exitDy=0;exitPerimeter=0;" edge="1" parent="1" source="FPZFbBysWziWErQP3HPj-2" target="FPZFbBysWziWErQP3HPj-27">
          <mxGeometry width="50" height="50" relative="1" as="geometry">
            <mxPoint x="840" y="400" as="sourcePoint" />
            <mxPoint x="890" y="350" as="targetPoint" />
          </mxGeometry>
        </mxCell>
        <mxCell id="FPZFbBysWziWErQP3HPj-40" value="" style="endArrow=none;html=1;rounded=0;entryX=0;entryY=0.5;entryDx=0;entryDy=0;exitX=1;exitY=0.75;exitDx=0;exitDy=0;" edge="1" parent="1" source="FPZFbBysWziWErQP3HPj-2" target="FPZFbBysWziWErQP3HPj-28">
          <mxGeometry width="50" height="50" relative="1" as="geometry">
            <mxPoint x="840" y="400" as="sourcePoint" />
            <mxPoint x="890" y="350" as="targetPoint" />
            <Array as="points">
              <mxPoint x="920" y="375" />
            </Array>
          </mxGeometry>
        </mxCell>
        <mxCell id="FPZFbBysWziWErQP3HPj-41" value="" style="endArrow=none;html=1;rounded=0;entryX=0;entryY=0.5;entryDx=0;entryDy=0;exitX=1;exitY=1;exitDx=0;exitDy=0;" edge="1" parent="1" source="FPZFbBysWziWErQP3HPj-2" target="FPZFbBysWziWErQP3HPj-29">
          <mxGeometry width="50" height="50" relative="1" as="geometry">
            <mxPoint x="840" y="400" as="sourcePoint" />
            <mxPoint x="890" y="350" as="targetPoint" />
            <Array as="points">
              <mxPoint x="920" y="395" />
            </Array>
          </mxGeometry>
        </mxCell>
        <mxCell id="FPZFbBysWziWErQP3HPj-42" value="(0, n)" style="text;html=1;align=center;verticalAlign=middle;resizable=0;points=[];autosize=1;strokeColor=none;fillColor=none;" vertex="1" parent="1">
          <mxGeometry x="395" y="328" width="50" height="30" as="geometry" />
        </mxCell>
        <mxCell id="FPZFbBysWziWErQP3HPj-43" value="(1,1)" style="text;html=1;align=center;verticalAlign=middle;resizable=0;points=[];autosize=1;strokeColor=none;fillColor=none;" vertex="1" parent="1">
          <mxGeometry x="695" y="328" width="50" height="30" as="geometry" />
        </mxCell>
      </root>
    </mxGraphModel>
  </diagram>
</mxfile>
